{"title":"I Hate Luv Storys (2010) Hindi 1 CD Dvdrip Xvid MP3 ESub@Mastito","uid":5786649,"size":724017716,"categoryP":"video","categoryS":"movies","magnet":"?xt=urn:btih:d4e05bf5405bcc155c49fbe6c688cf7238ad954e&amp;dn=I+Hate+Luv+Storys+%282010%29+Hindi+1+CD+Dvdrip+Xvid+MP3+ESub%40Mastito&amp;tr=udp%3A%2F%2Ftracker.openbittorrent.com%3A80&amp;tr=udp%3A%2F%2Fopen.demonii.com%3A1337&amp;tr=udp%3A%2F%2Ftracker.coppersurfer.tk%3A6969&amp;tr=udp%3A%2F%2Fexodus.desync.com%3A6969","seeders":0,"leechers":0,"uploader":"amanrulz","files":2,"time":1282664043,"description":"mastitorrents.com\n  &lt;a href=&quot;\nhttp://mastitorrents.com/forums/index.php&quot; rel=&quot;nofollow&quot; target=&quot;_NEW&quot;&gt;\nhttp://mastitorrents.com/forums/index.php&lt;/a&gt;\n\nRipper                           : snaink\nSource                           : DVD9 @ Dus Ka Sher\n\nGeneral\n\nFormat                           : AVI\nFormat/Info                      : Audio Video Interleave\nFormat profile                   : OpenDML\nFile size                        : 690 MiB\nDuration                         : 2h 8mn\nOverall bit rate                 : 750 Kbps\n\nVideo\nFormat                           : MPEG-4 Visual\nFormat profile                   : AdvancedSimple@L5\nFormat settings, BVOP            : Yes\nFormat settings, QPel            : No\nFormat settings, GMC             : No warppoints\nFormat settings, Matrix          : Default (H.263)\nCodec ID                         : XVID\nCodec ID/Hint                    : XviD\nDuration                         : 2h 8mn\nBit rate                         : 618 Kbps\nWidth                            : 688 pixels\nHeight                           : 288 pixels\nDisplay aspect ratio             : 2.35:1\nFrame rate                       : 29.970 fps\nResolution                       : 24 bits\nColorimetry                      : 4:2:0\nScan type                        : Progressive\nBits/(Pixel*Frame)               : 0.104\nStream size                      : 569 MiB (82%)\nWriting library                  : XviD 1.2.1 (UTC 2008-12-04)\n\nAudio\nFormat                           : MPEG Audio\nFormat version                   : Version 1\nFormat profile                   : Layer 3\nCodec ID                         : 55\nCodec ID/Hint                    : MP3\nDuration                         : 2h 8mn\nBit rate mode                    : Constant\nBit rate                         : 128 Kbps\nChannel(s)                       : 2 channels\nSampling rate                    : 48.0 KHz\nResolution                       : 16 bits\nStream size                      : 118 MiB (17%)\nAlignment                        : Aligned on interleaves\nInterleave, duration             : 1105 ms (33.12 video frames)\nInterleave, preload duration     : 216 ms\nTitle                            : VTS_02_1 T81 2_0ch 224Kbps DELAY 0ms\nWriting library                  : LAME3.98r\n\t\t","torrent":{"xt":"urn:btih:d4e05bf5405bcc155c49fbe6c688cf7238ad954e","amp;dn":"I+Hate+Luv+Storys+%282010%29+Hindi+1+CD+Dvdrip+Xvid+MP3+ESub%40Mastito","amp;tr":["udp%3A%2F%2Ftracker.openbittorrent.com%3A80","udp%3A%2F%2Fopen.demonii.com%3A1337","udp%3A%2F%2Ftracker.coppersurfer.tk%3A6969","udp%3A%2F%2Fexodus.desync.com%3A6969"],"infoHash":"d4e05bf5405bcc155c49fbe6c688cf7238ad954e","infoHashBuffer":{"type":"Buffer","data":[212,224,91,245,64,91,204,21,92,73,251,230,198,136,207,114,56,173,149,78]},"announce":[],"urlList":[]}}